PathFileType  4	(X/Y/Z) C:\Users\MoBL3\Box\OA_GRF_OpenCap\GRF_Tracking_12_18_24\Subject3_walking1
DataRate	CameraRate	NumFrames	NumMarkers	Units	OrigDataRate	OrigDataStartFrame	OrigNumFrames
100.0		100.0		4		177		 mm	100.0	67	132
Frame#	Time	r_knee			r_shank_antsup			r_ankle			r_calc			r_5meta			r_toe			L_knee			L_shank_antsup			L_ankle			L_calc			L_5meta			L_toe			r_sh2			r_sh3			r_sh4			L_sh2			L_sh3			r_thigh1			r_thigh2			r_thigh3			r_thigh4			r_thigh5			L_thigh1			L_thigh2			L_thigh3			L_thigh4			r.ASIS			r.PSIS			L.ASIS			L.PSIS			C7			R_Shoulder			L_Shoulder			R_Sternum			L_Sternum			R_humerus			R_elbow_med			R_elbow_lat			R_forearm			R_wrist_radius			R_wrist_ulna			L_humerus			L_elbow_med			L_elbow_lat			L_forearm			L_wrist_radius			L_wrist_ulna			R_HJC			L_HJC			R_HJC_reg			L_HJC_reg			Neck			RShoulder			RElbow			RWrist			LShoulder			LElbow			LWrist			midHip			RHip			RKnee			RAnkle			LHip			LKnee			LAnkle			LBigToe			LSmallToe			LHeel			RBigToe			RSmallToe			RHeel			C7_study			r_shoulder_study			L_shoulder_study			r.ASIS_study			L.ASIS_study			r.PSIS_study			L.PSIS_study			r_knee_study			L_knee_study			r_mknee_study			L_mknee_study			r_ankle_study			L_ankle_study			r_mankle_study			L_mankle_study			r_calc_study			L_calc_study			r_toe_study			L_toe_study			r_5meta_study			L_5meta_study			r_thigh1_study			r_thigh2_study			r_thigh3_study			L_thigh1_study			L_thigh2_study			L_thigh3_study			r_sh1_study			r_sh2_study			r_sh3_study			L_sh1_study			L_sh2_study			L_sh3_study			RHJC_study			LHJC_study			r_lelbow_study			L_lelbow_study			r_melbow_study			L_melbow_study			r_lwrist_study			L_lwrist_study			r_mwrist_study			L_mwrist_study			Neck_offsetRemoved			RShoulder_offsetRemoved			RElbow_offsetRemoved			RWrist_offsetRemoved			LShoulder_offsetRemoved			LElbow_offsetRemoved			LWrist_offsetRemoved			midHip_offsetRemoved			RHip_offsetRemoved			RKnee_offsetRemoved			RAnkle_offsetRemoved			LHip_offsetRemoved			LKnee_offsetRemoved			LAnkle_offsetRemoved			LBigToe_offsetRemoved			LSmallToe_offsetRemoved			LHeel_offsetRemoved			RBigToe_offsetRemoved			RSmallToe_offsetRemoved			RHeel_offsetRemoved			C7_study_offsetRemoved			r_shoulder_study_offsetRemoved			L_shoulder_study_offsetRemoved			r.ASIS_study_offsetRemoved			L.ASIS_study_offsetRemoved			r.PSIS_study_offsetRemoved			L.PSIS_study_offsetRemoved			r_knee_study_offsetRemoved			L_knee_study_offsetRemoved			r_mknee_study_offsetRemoved			L_mknee_study_offsetRemoved			r_ankle_study_offsetRemoved			L_ankle_study_offsetRemoved			r_mankle_study_offsetRemoved			L_mankle_study_offsetRemoved			r_calc_study_offsetRemoved			L_calc_study_offsetRemoved			r_toe_study_offsetRemoved			L_toe_study_offsetRemoved			r_5meta_study_offsetRemoved			L_5meta_study_offsetRemoved			r_thigh1_study_offsetRemoved			r_thigh2_study_offsetRemoved			r_thigh3_study_offsetRemoved			L_thigh1_study_offsetRemoved			L_thigh2_study_offsetRemoved			L_thigh3_study_offsetRemoved			r_sh1_study_offsetRemoved			r_sh2_study_offsetRemoved			r_sh3_study_offsetRemoved			L_sh1_study_offsetRemoved			L_sh2_study_offsetRemoved			L_sh3_study_offsetRemoved			RHJC_study_offsetRemoved			LHJC_study_offsetRemoved			r_lelbow_study_offsetRemoved			L_lelbow_study_offsetRemoved			r_melbow_study_offsetRemoved			L_melbow_study_offsetRemoved			r_lwrist_study_offsetRemoved			L_lwrist_study_offsetRemoved			r_mwrist_study_offsetRemoved			L_mwrist_study_offsetRemoved			
		X1	Y1	Z1	X2	Y2	Z2	X3	Y3	Z3	X4	Y4	Z4	X5	Y5	Z5	X6	Y6	Z6	X7	Y7	Z7	X8	Y8	Z8	X9	Y9	Z9	X10	Y10	Z10	X11	Y11	Z11	X12	Y12	Z12	X13	Y13	Z13	X14	Y14	Z14	X15	Y15	Z15	X16	Y16	Z16	X17	Y17	Z17	X18	Y18	Z18	X19	Y19	Z19	X20	Y20	Z20	X21	Y21	Z21	X22	Y22	Z22	X23	Y23	Z23	X24	Y24	Z24	X25	Y25	Z25	X26	Y26	Z26	X27	Y27	Z27	X28	Y28	Z28	X29	Y29	Z29	X30	Y30	Z30	X31	Y31	Z31	X32	Y32	Z32	X33	Y33	Z33	X34	Y34	Z34	X35	Y35	Z35	X36	Y36	Z36	X37	Y37	Z37	X38	Y38	Z38	X39	Y39	Z39	X40	Y40	Z40	X41	Y41	Z41	X42	Y42	Z42	X43	Y43	Z43	X44	Y44	Z44	X45	Y45	Z45	X46	Y46	Z46	X47	Y47	Z47	X48	Y48	Z48	X49	Y49	Z49	X50	Y50	Z50	X51	Y51	Z51	X52	Y52	Z52	X53	Y53	Z53	X54	Y54	Z54	X55	Y55	Z55	X56	Y56	Z56	X57	Y57	Z57	X58	Y58	Z58	X59	Y59	Z59	X60	Y60	Z60	X61	Y61	Z61	X62	Y62	Z62	X63	Y63	Z63	X64	Y64	Z64	X65	Y65	Z65	X66	Y66	Z66	X67	Y67	Z67	X68	Y68	Z68	X69	Y69	Z69	X70	Y70	Z70	X71	Y71	Z71	X72	Y72	Z72	X73	Y73	Z73	X74	Y74	Z74	X75	Y75	Z75	X76	Y76	Z76	X77	Y77	Z77	X78	Y78	Z78	X79	Y79	Z79	X80	Y80	Z80	X81	Y81	Z81	X82	Y82	Z82	X83	Y83	Z83	X84	Y84	Z84	X85	Y85	Z85	X86	Y86	Z86	X87	Y87	Z87	X88	Y88	Z88	X89	Y89	Z89	X90	Y90	Z90	X91	Y91	Z91	X92	Y92	Z92	X93	Y93	Z93	X94	Y94	Z94	X95	Y95	Z95	X96	Y96	Z96	X97	Y97	Z97	X98	Y98	Z98	X99	Y99	Z99	X100	Y100	Z100	X101	Y101	Z101	X102	Y102	Z102	X103	Y103	Z103	X104	Y104	Z104	X105	Y105	Z105	X106	Y106	Z106	X107	Y107	Z107	X108	Y108	Z108	X109	Y109	Z109	X110	Y110	Z110	X111	Y111	Z111	X112	Y112	Z112	X113	Y113	Z113	X114	Y114	Z114	X115	Y115	Z115	X116	Y116	Z116	X117	Y117	Z117	X118	Y118	Z118	X119	Y119	Z119	X120	Y120	Z120	X121	Y121	Z121	X122	Y122	Z122	X123	Y123	Z123	X124	Y124	Z124	X125	Y125	Z125	X126	Y126	Z126	X127	Y127	Z127	X128	Y128	Z128	X129	Y129	Z129	X130	Y130	Z130	X131	Y131	Z131	X132	Y132	Z132	X133	Y133	Z133	X134	Y134	Z134	X135	Y135	Z135	X136	Y136	Z136	X137	Y137	Z137	X138	Y138	Z138	X139	Y139	Z139	X140	Y140	Z140	X141	Y141	Z141	X142	Y142	Z142	X143	Y143	Z143	X144	Y144	Z144	X145	Y145	Z145	X146	Y146	Z146	X147	Y147	Z147	X148	Y148	Z148	X149	Y149	Z149	X150	Y150	Z150	X151	Y151	Z151	X152	Y152	Z152	X153	Y153	Z153	X154	Y154	Z154	X155	Y155	Z155	X156	Y156	Z156	X157	Y157	Z157	X158	Y158	Z158	X159	Y159	Z159	X160	Y160	Z160	X161	Y161	Z161	X162	Y162	Z162	X163	Y163	Z163	X164	Y164	Z164	X165	Y165	Z165	X166	Y166	Z166	X167	Y167	Z167	X168	Y168	Z168	X169	Y169	Z169	X170	Y170	Z170	X171	Y171	Z171	X172	Y172	Z172	X173	Y173	Z173	X174	Y174	Z174	X175	Y175	Z175	X176	Y176	Z176	X177	Y177	Z177	

67	0.66000	513.910	455.712	-115.508	473.160	335.716	-134.581	244.893	177.459	-185.709	192.201	180.510	-244.364	293.471	53.888	-165.320	337.617	53.985	-205.937	826.588	475.545	-376.278	880.017	387.825	-318.690	859.687	90.205	-334.362	809.606	57.820	-283.356	981.534	45.671	-329.759	1014.201	71.520	-275.492	397.229	258.900	-159.042	422.619	373.592	-92.103	336.237	309.283	-128.108	840.859	394.262	-397.637	856.299	274.465	-400.450	690.505	724.611	-92.111	668.416	615.780	-94.184	609.833	602.424	-64.000	581.808	742.287	-63.145	558.487	628.784	-68.866	791.747	771.190	-402.155	846.580	647.360	-384.319	697.428	730.945	-446.772	750.870	602.257	-420.105	745.123	891.388	-111.846	569.594	948.304	-196.613	770.543	922.100	-355.652	574.410	954.928	-312.947	579.755	1402.008	-233.035	639.599	1368.251	-83.099	634.217	1376.829	-395.080	710.657	1356.289	-218.381	711.099	1354.785	-263.059	674.267	1244.530	-19.675	634.893	1034.474	-62.096	661.604	1049.776	7.020	757.245	964.314	16.256	829.002	889.650	8.914	801.616	867.458	26.223	626.261	1226.364	-461.867	545.925	1049.484	-384.471	535.453	1061.675	-457.506	544.635	971.412	-499.257	536.492	839.523	-507.834	505.059	845.937	-513.824	657.151	826.097	-157.064	682.075	843.134	-343.955	676.649	835.991	-152.116	683.389	845.250	-314.755	651.651	1299.569	-235.155	657.940	1296.353	-79.851	664.095	1049.556	-30.228	806.478	847.511	-6.421	655.355	1303.175	-390.714	570.734	1043.840	-436.409	545.109	814.266	-494.899	678.055	844.906	-240.673	669.849	840.838	-133.512	537.399	429.330	-162.959	254.697	152.670	-220.434	692.286	848.555	-347.487	806.749	475.873	-311.289	864.617	68.731	-291.479	1023.939	24.493	-273.116	1018.646	26.151	-273.744	832.119	29.684	-287.276	322.774	32.399	-206.538	319.488	38.242	-206.774	214.801	143.998	-235.650	576.693	1339.821	-229.891	650.360	1327.259	-97.426	651.842	1329.398	-366.127	716.007	910.264	-85.825	743.116	924.640	-377.307	564.490	944.716	-192.251	575.238	945.642	-302.891	538.234	432.595	-114.517	842.892	464.192	-357.476	543.216	440.728	-224.319	833.530	473.842	-248.703	249.661	149.370	-161.559	868.305	62.316	-323.777	270.324	145.403	-239.644	878.429	73.056	-243.951	189.562	179.599	-210.787	803.149	24.966	-280.051	316.413	35.775	-202.126	1000.450	27.009	-268.906	279.492	58.131	-152.170	964.606	21.826	-326.324	682.081	669.735	-85.150	621.055	578.162	-80.146	578.804	709.239	-63.186	808.923	744.907	-385.155	817.171	631.969	-393.844	706.528	703.375	-420.976	449.183	341.465	-122.408	385.143	238.102	-126.200	345.050	292.982	-123.667	854.321	340.081	-354.195	893.288	222.976	-353.971	827.474	225.565	-361.751	635.778	843.413	-153.328	656.391	853.204	-331.465	670.308	1046.576	18.676	571.250	1051.555	-468.315	653.918	1021.761	-63.454	573.556	1032.851	-391.589	835.039	872.023	-9.940	570.871	807.453	-475.133	780.567	836.544	21.274	502.194	817.264	-478.979	655.533	1312.649	-238.746	661.822	1309.434	-83.442	667.977	1062.636	-33.819	810.360	860.592	-10.012	659.237	1316.256	-394.305	574.616	1056.921	-440.000	548.991	827.347	-498.490	681.937	857.987	-244.264	673.731	853.919	-137.103	541.281	442.411	-166.550	258.579	165.750	-224.025	696.168	861.636	-351.078	810.631	488.953	-314.880	868.500	81.812	-295.070	1027.821	37.574	-276.707	1022.528	39.232	-277.335	836.001	42.765	-290.867	326.656	45.480	-210.129	323.370	51.323	-210.365	218.683	157.079	-239.241	580.575	1352.902	-233.482	654.242	1340.340	-101.017	655.724	1342.479	-369.718	719.889	923.345	-89.416	746.998	937.720	-380.898	568.372	957.796	-195.842	579.120	958.723	-306.482	542.116	445.676	-118.108	846.774	477.273	-361.067	547.098	453.809	-227.910	837.412	486.923	-252.294	253.543	162.451	-165.150	872.187	75.397	-327.368	274.206	158.484	-243.235	882.311	86.137	-247.543	193.444	192.680	-214.378	807.031	38.046	-283.642	320.295	48.856	-205.717	1004.333	40.090	-272.498	283.374	71.212	-155.761	968.489	34.907	-329.915	685.963	682.815	-88.741	624.937	591.242	-83.737	582.686	722.320	-66.777	812.805	757.988	-388.746	821.053	645.050	-397.435	710.410	716.456	-424.567	453.065	354.546	-125.999	389.026	251.182	-129.791	348.932	306.063	-127.258	858.203	353.161	-357.786	897.170	236.057	-357.562	831.356	238.646	-365.342	639.660	856.494	-156.919	660.273	866.285	-335.056	674.190	1059.657	15.085	575.133	1064.636	-471.906	657.800	1034.842	-67.045	577.438	1045.932	-395.180	838.921	885.104	-13.531	574.753	820.534	-478.724	784.450	849.625	17.683	506.076	830.344	-482.570
68	0.67000	537.581	453.131	-113.615	493.282	334.607	-132.499	259.413	186.450	-183.765	208.139	194.492	-242.521	297.877	58.939	-164.953	341.419	55.741	-205.742	837.549	477.959	-375.691	887.593	388.226	-318.043	860.544	90.988	-334.440	809.965	58.396	-283.523	981.770	45.700	-330.288	1014.501	70.703	-275.547	414.266	260.823	-157.211	444.143	374.443	-90.153	355.270	313.452	-125.904	850.110	395.746	-397.593	862.922	275.703	-400.396	707.754	725.853	-93.742	688.178	616.469	-94.481	629.998	602.069	-63.678	598.756	741.251	-64.190	578.075	627.318	-68.716	805.048	774.592	-402.320	859.481	650.652	-383.839	711.315	734.505	-448.017	763.645	605.465	-420.122	759.913	893.072	-113.383	583.902	950.054	-194.989	783.803	926.463	-356.693	587.673	958.118	-311.396	593.110	1404.723	-232.991	653.381	1371.181	-83.269	647.136	1379.194	-395.150	723.908	1358.853	-218.680	724.293	1357.319	-263.298	686.484	1246.890	-19.731	644.537	1037.861	-64.203	670.671	1052.021	5.449	763.663	963.581	15.326	832.836	886.599	8.373	804.476	865.281	25.296	641.161	1228.537	-461.767	562.988	1050.539	-384.942	552.562	1062.622	-458.003	563.281	972.613	-499.763	557.427	840.707	-508.702	525.661	846.640	-514.640	672.246	827.793	-158.057	695.361	847.115	-344.974	691.754	837.775	-153.641	697.025	849.017	-316.028	665.475	1301.957	-234.725	671.916	1298.476	-79.443	674.633	1051.373	-30.795	810.400	845.241	-7.017	668.976	1305.809	-390.277	586.326	1046.036	-435.732	567.213	815.894	-495.984	692.740	846.539	-240.884	685.088	842.356	-133.540	565.001	429.619	-159.229	267.340	160.972	-218.125	706.397	850.208	-347.938	817.955	477.149	-310.784	865.296	68.935	-291.459	1025.300	23.546	-272.740	1020.071	25.284	-273.372	832.491	30.353	-287.313	325.328	35.027	-206.325	322.521	41.125	-206.437	224.951	153.811	-232.569	590.573	1342.487	-229.813	664.199	1330.170	-97.134	665.890	1331.831	-365.791	730.560	910.623	-85.354	757.744	927.582	-376.664	578.649	946.040	-191.492	589.445	947.571	-301.985	562.042	431.931	-112.105	854.002	465.805	-357.018	567.280	439.883	-222.104	844.127	475.635	-248.521	263.734	159.358	-159.397	870.269	63.272	-323.157	283.676	154.516	-237.814	879.792	73.620	-243.085	206.642	193.802	-208.123	803.893	26.709	-279.596	320.754	40.940	-201.428	1001.210	25.686	-267.994	286.621	65.481	-150.836	965.561	21.062	-325.415	700.364	672.354	-84.161	641.587	579.766	-78.537	596.244	709.304	-62.867	822.725	746.030	-384.258	830.221	633.328	-393.233	720.264	705.558	-421.002	470.243	342.891	-120.171	402.542	241.936	-124.003	364.463	298.645	-121.171	863.127	340.907	-353.644	899.334	223.082	-353.089	833.485	227.189	-361.458	650.284	844.220	-153.658	670.893	855.549	-331.622	681.206	1048.741	17.558	588.949	1053.270	-469.386	664.891	1024.400	-64.627	591.137	1034.287	-392.487	841.877	869.699	-10.257	594.263	809.548	-476.474	786.272	835.251	20.770	525.322	817.797	-481.200	669.357	1315.038	-238.316	675.798	1311.557	-83.034	678.515	1064.454	-34.386	814.282	858.322	-10.608	672.858	1318.890	-393.868	590.208	1059.117	-439.323	571.095	828.974	-499.575	696.622	859.619	-244.475	688.970	855.436	-137.131	568.883	442.700	-162.820	271.222	174.053	-221.716	710.279	863.289	-351.529	821.837	490.230	-314.375	869.178	82.016	-295.050	1029.182	36.626	-276.331	1023.954	38.365	-276.964	836.373	43.434	-290.904	329.210	48.108	-209.916	326.403	54.206	-210.028	228.833	166.891	-236.160	594.455	1355.568	-233.404	668.081	1343.251	-100.726	669.772	1344.912	-369.382	734.442	923.704	-88.945	761.626	940.663	-380.255	582.531	959.120	-195.083	593.327	960.652	-305.576	565.924	445.012	-115.696	857.884	478.886	-360.609	571.163	452.964	-225.695	848.009	488.716	-252.112	267.616	172.439	-162.988	874.151	76.353	-326.748	287.558	167.597	-241.405	883.674	86.701	-246.676	210.524	206.883	-211.714	807.776	39.790	-283.187	324.636	54.021	-205.019	1005.092	38.767	-271.585	290.503	78.562	-154.427	969.443	34.143	-329.006	704.246	685.435	-87.752	645.469	592.847	-82.128	600.126	722.384	-66.458	826.607	759.110	-387.849	834.103	646.408	-396.824	724.146	718.639	-424.593	474.125	355.972	-123.762	406.424	255.017	-127.594	368.345	311.726	-124.762	867.009	353.988	-357.235	903.216	236.163	-356.680	837.367	240.269	-365.050	654.167	857.301	-157.249	674.775	868.630	-335.213	685.088	1061.822	13.967	592.831	1066.351	-472.977	668.773	1037.481	-68.218	595.020	1047.367	-396.078	845.759	882.779	-13.848	598.145	822.629	-480.065	790.154	848.332	17.179	529.204	830.878	-484.791
69	0.68000	562.496	450.321	-111.519	514.784	333.336	-130.409	275.883	195.676	-181.720	226.446	208.978	-240.472	303.352	65.175	-164.570	346.018	58.036	-205.400	847.273	479.725	-375.225	894.268	388.267	-317.417	861.177	91.654	-334.370	810.197	58.801	-283.615	981.887	45.960	-330.649	1014.642	70.181	-275.444	432.831	262.772	-155.444	467.106	374.960	-88.000	375.854	317.435	-123.568	858.294	396.751	-397.413	868.673	276.514	-400.096	725.281	727.204	-95.315	708.489	617.282	-94.560	650.824	601.668	-63.074	615.876	739.994	-65.038	598.267	625.668	-68.308	818.029	777.224	-402.609	871.557	652.937	-383.676	724.552	737.728	-449.032	775.453	608.079	-420.262	774.407	895.036	-115.037	597.929	951.967	-193.567	796.947	930.572	-357.691	600.914	961.271	-310.071	606.246	1407.426	-232.918	666.993	1374.286	-83.442	659.989	1381.760	-395.071	736.959	1361.491	-218.877	737.327	1359.973	-263.429	698.684	1249.533	-19.789	653.869	1041.717	-66.202	679.530	1054.642	3.994	769.607	963.142	14.448	836.007	883.780	7.833	806.758	863.343	24.390	656.113	1231.051	-461.630	580.085	1051.912	-385.435	569.862	1063.841	-458.551	582.377	974.134	-500.296	579.061	842.217	-509.544	546.995	847.628	-515.471	687.030	829.705	-158.996	708.485	850.940	-345.930	706.476	839.795	-155.336	710.637	852.720	-317.322	678.812	1304.367	-234.408	685.321	1300.667	-79.130	685.134	1053.385	-31.213	813.634	843.281	-7.413	682.208	1308.429	-389.963	602.601	1048.317	-435.464	589.637	817.784	-497.001	707.626	848.827	-241.196	700.490	844.551	-133.768	593.938	430.024	-155.335	281.784	169.301	-215.855	720.714	852.558	-348.388	828.038	478.276	-310.546	865.782	68.951	-291.439	1026.558	23.122	-272.292	1021.342	24.911	-272.928	832.917	30.810	-287.241	328.658	37.869	-205.751	326.352	44.228	-205.772	236.981	163.663	-229.556	604.811	1345.767	-229.817	678.277	1333.656	-96.903	680.410	1334.858	-365.468	745.314	911.692	-85.030	772.598	931.115	-376.154	593.006	948.025	-190.827	603.866	950.118	-301.202	587.538	431.934	-109.651	864.717	467.902	-356.689	593.051	439.680	-219.832	854.452	477.902	-248.472	279.831	170.042	-157.273	871.973	64.802	-322.745	299.031	164.321	-236.085	880.956	74.808	-242.421	225.980	208.579	-205.499	804.539	28.900	-279.302	326.818	47.092	-200.821	1001.808	25.370	-267.393	295.648	73.741	-149.634	966.268	21.162	-324.741	719.451	675.959	-83.243	663.286	582.211	-76.960	614.409	709.930	-62.568	836.514	747.582	-383.587	843.137	635.044	-392.828	733.941	708.316	-421.145	493.107	344.956	-117.875	421.802	246.434	-121.817	385.805	304.912	-118.668	871.581	342.217	-353.284	905.024	223.735	-352.396	839.188	229.319	-361.326	665.021	845.736	-154.094	685.566	858.546	-331.881	692.150	1051.523	16.379	606.907	1055.629	-470.549	675.874	1027.671	-65.868	608.970	1036.341	-393.435	848.410	867.846	-10.561	618.170	812.394	-477.874	791.624	834.517	20.222	548.966	818.998	-483.462	682.694	1317.447	-237.999	689.203	1313.748	-82.721	689.016	1066.465	-34.804	817.516	856.362	-11.004	686.090	1321.509	-393.554	606.483	1061.397	-439.055	593.519	830.865	-500.592	711.508	861.908	-244.787	704.372	857.632	-137.359	597.820	443.105	-158.926	285.666	182.381	-219.446	724.596	865.639	-351.979	831.920	491.357	-314.137	869.664	82.032	-295.030	1030.440	36.203	-275.883	1025.224	37.992	-276.519	836.799	43.891	-290.832	332.540	50.950	-209.342	330.234	57.309	-209.363	240.863	176.744	-233.147	608.693	1358.848	-233.408	682.159	1346.737	-100.494	684.292	1347.939	-369.059	749.197	924.773	-88.621	776.480	944.195	-379.745	596.888	961.106	-194.418	607.748	963.199	-304.793	591.420	445.015	-113.242	868.599	480.982	-360.280	596.933	452.761	-223.423	858.335	490.983	-252.063	283.713	183.123	-160.864	875.855	77.883	-326.336	302.913	177.402	-239.676	884.838	87.889	-246.012	229.862	221.660	-209.090	808.421	41.981	-282.893	330.700	60.172	-204.412	1005.690	38.451	-270.984	299.530	86.822	-153.225	970.150	34.243	-328.332	723.334	689.040	-86.834	667.168	595.291	-80.551	618.291	723.011	-66.159	840.396	760.663	-387.178	847.019	648.125	-396.419	737.823	721.397	-424.736	496.989	358.036	-121.466	425.684	259.514	-125.408	389.687	317.992	-122.259	875.463	355.298	-356.875	908.906	236.816	-355.987	843.070	242.399	-364.917	668.903	858.817	-157.685	689.448	871.627	-335.472	696.032	1064.604	12.788	610.789	1068.710	-474.140	679.756	1040.751	-69.459	612.852	1049.422	-397.026	852.292	880.927	-14.152	622.052	825.475	-481.465	795.506	847.598	16.631	552.848	832.078	-487.053
70	0.69000	588.344	447.376	-109.327	537.528	331.918	-128.388	294.209	204.827	-179.582	246.957	223.448	-238.208	310.277	72.388	-164.096	351.700	60.856	-204.877	855.622	480.726	-374.963	900.139	387.895	-316.907	861.701	92.132	-334.146	810.363	59.025	-283.603	981.961	46.209	-330.837	1014.731	69.692	-275.196	452.845	264.685	-153.746	491.321	375.145	-85.720	397.837	321.156	-121.151	865.324	397.178	-397.156	873.535	276.841	-399.622	742.930	728.574	-96.647	729.165	618.165	-94.289	672.085	601.197	-62.149	633.042	738.485	-65.630	618.891	623.833	-67.630	830.617	778.897	-402.989	882.625	653.975	-383.928	736.979	740.548	-449.758	786.079	610.053	-420.606	788.546	897.088	-116.631	611.659	953.888	-192.480	810.017	934.081	-358.532	614.175	964.237	-309.105	619.144	1409.914	-232.826	680.319	1377.339	-83.606	672.830	1384.355	-394.867	749.805	1364.053	-218.941	750.201	1362.598	-263.433	710.794	1252.230	-19.856	662.893	1045.745	-67.978	688.230	1057.420	2.716	775.161	962.857	13.654	838.645	881.109	7.314	808.598	861.575	23.552	671.117	1233.722	-461.485	597.128	1053.450	-385.970	587.275	1065.183	-459.171	601.837	975.817	-500.861	601.297	843.907	-510.327	568.972	848.761	-516.294	701.374	831.674	-159.815	721.485	854.326	-346.758	720.753	841.773	-157.077	724.239	856.089	-318.550	691.589	1306.669	-234.213	697.999	1302.823	-78.963	695.510	1055.479	-31.555	816.235	841.529	-7.628	695.045	1310.880	-389.734	619.923	1050.600	-435.778	612.705	819.799	-498.075	722.555	851.588	-241.533	715.831	847.280	-134.092	623.790	430.439	-151.454	297.995	177.244	-213.580	735.163	855.396	-348.785	836.778	479.051	-310.588	866.228	68.695	-291.392	1027.640	22.911	-271.744	1022.400	24.729	-272.385	833.398	30.933	-287.035	333.297	40.787	-204.582	331.476	47.396	-204.556	251.105	173.116	-226.640	619.175	1349.442	-229.869	692.343	1337.536	-96.688	695.195	1338.290	-365.122	760.114	913.313	-84.794	787.522	935.051	-375.714	607.408	950.475	-190.210	618.355	953.088	-300.490	614.314	432.504	-107.143	874.832	470.241	-356.408	620.111	440.009	-217.480	864.296	480.391	-248.466	297.766	180.992	-155.154	873.327	66.626	-322.448	316.231	174.413	-234.417	881.852	76.342	-241.873	247.263	223.399	-202.913	805.010	31.274	-279.070	334.756	53.888	-200.222	1002.182	25.744	-267.010	306.624	82.516	-148.502	966.667	21.819	-324.229	739.074	680.342	-82.353	685.830	585.326	-75.388	633.061	710.987	-62.215	850.131	749.339	-383.059	855.726	636.881	-392.549	747.392	711.440	-421.326	517.430	347.492	-115.497	442.669	251.344	-119.608	408.758	311.494	-116.130	879.487	343.775	-353.039	910.213	224.710	-351.810	844.426	231.705	-361.269	679.830	847.784	-154.571	700.262	861.996	-332.155	702.963	1054.720	15.196	625.020	1058.412	-471.759	686.708	1031.367	-67.126	626.921	1038.807	-394.402	854.467	866.310	-10.775	642.454	815.788	-479.284	796.455	834.197	19.685	573.003	820.669	-485.704	695.471	1319.750	-237.804	701.881	1315.904	-82.554	699.392	1068.559	-35.146	820.117	854.610	-11.219	698.928	1323.961	-393.325	623.805	1063.681	-439.369	616.587	832.879	-501.666	726.437	864.669	-245.124	719.713	860.361	-137.683	627.672	443.520	-155.045	301.877	190.325	-217.171	739.045	868.477	-352.376	840.660	492.132	-314.179	870.110	81.776	-294.983	1031.522	35.992	-275.335	1026.282	37.809	-275.976	837.280	44.013	-290.626	337.179	53.868	-208.174	335.358	60.477	-208.147	254.987	186.197	-230.231	623.058	1362.523	-233.460	696.225	1350.617	-100.279	699.077	1351.371	-368.713	763.996	926.394	-88.385	791.404	948.132	-379.305	611.290	963.556	-193.801	622.237	966.169	-304.081	618.197	445.585	-110.734	878.714	483.322	-359.999	623.993	453.090	-221.071	868.178	493.472	-252.057	301.648	194.073	-158.745	877.209	79.707	-326.039	320.113	187.494	-238.008	885.735	89.422	-245.464	251.145	236.480	-206.504	808.892	44.355	-282.661	338.639	66.969	-203.813	1006.064	38.825	-270.601	310.506	95.597	-152.093	970.549	34.900	-327.820	742.956	693.423	-85.944	689.712	598.406	-78.979	636.943	724.068	-65.806	854.014	762.420	-386.650	859.608	649.961	-396.140	751.274	724.521	-424.917	521.312	360.573	-119.088	446.551	264.425	-123.199	412.641	324.575	-119.721	883.369	356.856	-356.630	914.095	237.791	-355.401	848.308	244.786	-364.860	683.712	860.865	-158.162	704.144	875.077	-335.746	706.845	1067.800	11.605	628.902	1071.493	-475.350	690.591	1044.447	-70.717	630.803	1051.887	-397.993	858.349	879.391	-14.366	646.336	828.869	-482.875	800.337	847.277	16.094	576.885	833.750	-489.295
